<svg xmlns="http://www.w3.org/2000/svg" width="260" height="42.451" viewBox="0 0 260 42.451">
  <g id="Grupo_96" data-name="Grupo 96" transform="translate(547.046 -398.886)">
    <rect id="Retângulo_147" data-name="Retângulo 147" width="17.245" height="17.245" transform="translate(-547.046 424.092)" fill="#fff"/>
    <g id="Grupo_95" data-name="Grupo 95" transform="translate(-513.543 398.886)">
      <path id="Caminho_37" data-name="Caminho 37" d="M-480.637,453.234h6.063V428.983h11.64V422.92h-17.7Z" transform="translate(480.637 -410.795)" fill="#fff"/>
      <path id="Caminho_38" data-name="Caminho 38" d="M-480.637,453.234h6.063V428.983h11.64V422.92h-17.7Z" transform="translate(480.637 -410.795)" fill="#fff"/>
      <rect id="Retângulo_148" data-name="Retângulo 148" width="6.063" height="30.314" transform="translate(23.766 12.125)" fill="#fff"/>
      <rect id="Retângulo_149" data-name="Retângulo 149" width="6.063" height="30.314" transform="translate(23.766 12.125)" fill="#fff"/>
      <rect id="Retângulo_150" data-name="Retângulo 150" width="6.063" height="6.063" transform="translate(23.766)" fill="#fff"/>
      <rect id="Retângulo_151" data-name="Retângulo 151" width="6.063" height="6.063" transform="translate(23.766)" fill="#fff"/>
      <path id="Caminho_39" data-name="Caminho 39" d="M-394.52,446.808h-.97l-7.639-23.887h-6.366l9.7,30.314h9.579l9.7-30.314h-6.366Z" transform="translate(445.385 -410.795)" fill="#fff"/>
      <path id="Caminho_40" data-name="Caminho 40" d="M-394.52,446.808h-.97l-7.639-23.887h-6.366l9.7,30.314h9.579l9.7-30.314h-6.366Z" transform="translate(445.385 -410.795)" fill="#fff"/>
      <path id="Caminho_41" data-name="Caminho 41" d="M-332.949,422.92c-9.336,0-13.1,6.245-13.1,15.157,0,5.4,1.7,15.157,15.4,15.157a28.6,28.6,0,0,0,8.73-1.213V446.08a28.433,28.433,0,0,1-8.73,1.092c-6.608,0-8.548-2.607-9.094-6.063h19.885v-3.637C-319.853,428.559-323.612,422.92-332.949,422.92Zm-6.972,12.126c.364-4.062,2.425-6.063,6.972-6.063,4.79,0,6.79,1.637,7.033,6.063Z" transform="translate(413.945 -410.795)" fill="#fff"/>
      <path id="Caminho_42" data-name="Caminho 42" d="M-332.949,422.92c-9.336,0-13.1,6.245-13.1,15.157,0,5.4,1.7,15.157,15.4,15.157a28.6,28.6,0,0,0,8.73-1.213V446.08a28.433,28.433,0,0,1-8.73,1.092c-6.608,0-8.548-2.607-9.094-6.063h19.885v-3.637C-319.853,428.559-323.612,422.92-332.949,422.92Zm-6.972,12.126c.364-4.062,2.425-6.063,6.972-6.063,4.79,0,6.79,1.637,7.033,6.063Z" transform="translate(413.945 -410.795)" fill="#fff"/>
      <path id="Caminho_43" data-name="Caminho 43" d="M-282.112,453.234h6.063V428.983h11.64V422.92h-17.7Z" transform="translate(382.266 -410.795)" fill="#fff"/>
      <path id="Caminho_44" data-name="Caminho 44" d="M-282.112,453.234h6.063V428.983h11.64V422.92h-17.7Z" transform="translate(382.266 -410.795)" fill="#fff"/>
      <path id="Caminho_45" data-name="Caminho 45" d="M-225.4,434.621c-5.214-1.152-5.941-1.637-5.941-3.334,0-1.516,1.031-2.3,4.123-2.3,3.335,0,7.215.97,11.641,2.547v-6.063a25.955,25.955,0,0,0-11.034-2.547c-6.487,0-10.792,3.456-10.792,8.488,0,5.457,2.365,7.336,11.034,9.215,5.577,1.213,7.154,1.516,7.154,3.638,0,1.88-1.394,2.91-5.335,2.91-4.486,0-7.336-1.092-12.853-3.941v6.729a25.219,25.219,0,0,0,12.853,3.274c7.094,0,11.4-3.334,11.4-9.094C-213.157,438.138-216.431,436.622-225.4,434.621Z" transform="translate(360.114 -410.795)" fill="#fff"/>
      <path id="Caminho_46" data-name="Caminho 46" d="M-225.4,434.621c-5.214-1.152-5.941-1.637-5.941-3.334,0-1.516,1.031-2.3,4.123-2.3,3.335,0,7.215.97,11.641,2.547v-6.063a25.955,25.955,0,0,0-11.034-2.547c-6.487,0-10.792,3.456-10.792,8.488,0,5.457,2.365,7.336,11.034,9.215,5.577,1.213,7.154,1.516,7.154,3.638,0,1.88-1.394,2.91-5.335,2.91-4.486,0-7.336-1.092-12.853-3.941v6.729a25.219,25.219,0,0,0,12.853,3.274c7.094,0,11.4-3.334,11.4-9.094C-213.157,438.138-216.431,436.622-225.4,434.621Z" transform="translate(360.114 -410.795)" fill="#fff"/>
      <path id="Caminho_47" data-name="Caminho 47" d="M-165.236,422.92c-9.216,0-14.49,6.245-14.49,15.157s5.274,15.157,14.49,15.157,14.489-6.245,14.489-15.157S-156.021,422.92-165.236,422.92Zm0,24.251c-6.245,0-8.427-1.819-8.427-9.094s2.182-9.094,8.427-9.094,8.426,1.819,8.426,9.094S-158.992,447.171-165.236,447.171Z" transform="translate(331.532 -410.795)" fill="#fff"/>
      <path id="Caminho_48" data-name="Caminho 48" d="M-165.236,422.92c-9.216,0-14.49,6.245-14.49,15.157s5.274,15.157,14.49,15.157,14.489-6.245,14.489-15.157S-156.021,422.92-165.236,422.92Zm0,24.251c-6.245,0-8.427-1.819-8.427-9.094s2.182-9.094,8.427-9.094,8.426,1.819,8.426,9.094S-158.992,447.171-165.236,447.171Z" transform="translate(331.532 -410.795)" fill="#fff"/>
      <path id="Caminho_49" data-name="Caminho 49" d="M-111.425,411.011h-4.85v6.063h4.85v24.251h6.063V417.074h8.609v-6.063h-8.609v-6.063h8.609v-6.063h-14.672Z" transform="translate(300.091 -398.886)" fill="#fff"/>
      <path id="Caminho_50" data-name="Caminho 50" d="M-111.425,411.011h-4.85v6.063h4.85v24.251h6.063V417.074h8.609v-6.063h-8.609v-6.063h8.609v-6.063h-14.672Z" transform="translate(300.091 -398.886)" fill="#fff"/>
      <path id="Caminho_51" data-name="Caminho 51" d="M-58.254,398.886h-6.063v12.125h-4.85v6.063h4.85v24.251h14.065v-6.063h-8V417.074h8v-6.063h-8Z" transform="translate(276.749 -398.886)" fill="#fff"/>
      <path id="Caminho_52" data-name="Caminho 52" d="M-58.254,398.886h-6.063v12.125h-4.85v6.063h4.85v24.251h14.065v-6.063h-8V417.074h8v-6.063h-8Z" transform="translate(276.749 -398.886)" fill="#fff"/>
    </g>
  </g>
</svg>
