<svg xmlns="http://www.w3.org/2000/svg" xmlns:xlink="http://www.w3.org/1999/xlink" width="254.279" height="42.074" viewBox="0 0 254.279 42.074">
  <defs>
    <linearGradient id="linear-gradient" x1="0.5" y1="1" x2="0.5" gradientUnits="objectBoundingBox">
      <stop offset="0" stop-color="#56b6b5"/>
      <stop offset="1" stop-color="#00acde"/>
    </linearGradient>
    <linearGradient id="linear-gradient-2" y1="0.5" x2="1" y2="0.5" gradientUnits="objectBoundingBox">
      <stop offset="0" stop-color="#56b6b5"/>
      <stop offset="0.459" stop-color="#47b3c0"/>
      <stop offset="1" stop-color="#00acde"/>
    </linearGradient>
    <linearGradient id="linear-gradient-3" x1="-0.755" y1="0.5" x2="13.468" y2="0.5" xlink:href="#linear-gradient-2"/>
    <linearGradient id="linear-gradient-5" x1="-6.125" y1="0.5" x2="35.408" y2="0.5" xlink:href="#linear-gradient-2"/>
    <linearGradient id="linear-gradient-9" x1="-1.7" y1="0.5" x2="6.989" y2="0.5" xlink:href="#linear-gradient-2"/>
    <linearGradient id="linear-gradient-11" x1="-3.103" y1="0.5" x2="6.511" y2="0.5" xlink:href="#linear-gradient-2"/>
    <linearGradient id="linear-gradient-13" x1="-6.412" y1="0.5" x2="7.811" y2="0.5" xlink:href="#linear-gradient-2"/>
    <linearGradient id="linear-gradient-15" x1="-5.611" y1="0.5" x2="4.772" y2="0.5" xlink:href="#linear-gradient-2"/>
    <linearGradient id="linear-gradient-17" x1="-5.7" y1="0.5" x2="2.989" y2="0.5" xlink:href="#linear-gradient-2"/>
    <linearGradient id="linear-gradient-19" x1="-10.101" y1="0.5" x2="2.798" y2="0.5" xlink:href="#linear-gradient-2"/>
    <linearGradient id="linear-gradient-21" x1="-11.681" y1="0.5" x2="1.631" y2="0.5" xlink:href="#linear-gradient-2"/>
  </defs>
  <g id="Grupo_19" data-name="Grupo 19" transform="translate(-46.767 -237.099)">
    <rect id="Retângulo_16" data-name="Retângulo 16" width="17.092" height="17.092" transform="translate(46.767 262.081)" fill="url(#linear-gradient)"/>
    <g id="Grupo_18" data-name="Grupo 18" transform="translate(76.564 237.099)">
      <path id="Caminho_9" data-name="Caminho 9" d="M106.361,291.177h6.009V267.142h11.537v-6.009H106.361Z" transform="translate(-106.361 -249.116)" fill="url(#linear-gradient-2)"/>
      <path id="Caminho_10" data-name="Caminho 10" d="M106.361,291.177h6.009V267.142h11.537v-6.009H106.361Z" transform="translate(-106.361 -249.116)" fill="url(#linear-gradient-3)"/>
      <rect id="Retângulo_17" data-name="Retângulo 17" width="6.009" height="30.044" transform="translate(23.554 12.017)" fill="url(#linear-gradient-2)"/>
      <rect id="Retângulo_18" data-name="Retângulo 18" width="6.009" height="30.044" transform="translate(23.554 12.017)" fill="url(#linear-gradient-5)"/>
      <rect id="Retângulo_19" data-name="Retângulo 19" width="6.009" height="6.009" transform="translate(23.554)" fill="url(#linear-gradient-2)"/>
      <rect id="Retângulo_20" data-name="Retângulo 20" width="6.009" height="6.009" transform="translate(23.554)" fill="url(#linear-gradient-5)"/>
      <path id="Caminho_11" data-name="Caminho 11" d="M192.344,284.808h-.961l-7.571-23.675H177.5l9.614,30.044h9.494l9.614-30.044h-6.309Z" transform="translate(-141.932 -249.116)" fill="url(#linear-gradient-2)"/>
      <path id="Caminho_12" data-name="Caminho 12" d="M192.344,284.808h-.961l-7.571-23.675H177.5l9.614,30.044h9.494l9.614-30.044h-6.309Z" transform="translate(-141.932 -249.116)" fill="url(#linear-gradient-9)"/>
      <path id="Caminho_13" data-name="Caminho 13" d="M253.932,261.134c-9.254,0-12.979,6.189-12.979,15.022,0,5.348,1.682,15.022,15.262,15.022a28.348,28.348,0,0,0,8.652-1.2v-5.888a28.183,28.183,0,0,1-8.652,1.082c-6.549,0-8.472-2.584-9.013-6.009H266.91v-3.605C266.91,266.722,263.185,261.134,253.932,261.134Zm-6.911,12.017c.361-4.026,2.4-6.009,6.911-6.009,4.746,0,6.729,1.622,6.97,6.009Z" transform="translate(-173.657 -249.116)" fill="url(#linear-gradient-2)"/>
      <path id="Caminho_14" data-name="Caminho 14" d="M253.932,261.134c-9.254,0-12.979,6.189-12.979,15.022,0,5.348,1.682,15.022,15.262,15.022a28.348,28.348,0,0,0,8.652-1.2v-5.888a28.183,28.183,0,0,1-8.652,1.082c-6.549,0-8.472-2.584-9.013-6.009H266.91v-3.605C266.91,266.722,263.185,261.134,253.932,261.134Zm-6.911,12.017c.361-4.026,2.4-6.009,6.911-6.009,4.746,0,6.729,1.622,6.97,6.009Z" transform="translate(-173.657 -249.116)" fill="url(#linear-gradient-11)"/>
      <path id="Caminho_15" data-name="Caminho 15" d="M304.885,291.177h6.009V267.142h11.537v-6.009H304.885Z" transform="translate(-205.623 -249.116)" fill="url(#linear-gradient-2)"/>
      <path id="Caminho_16" data-name="Caminho 16" d="M304.885,291.177h6.009V267.142h11.537v-6.009H304.885Z" transform="translate(-205.623 -249.116)" fill="url(#linear-gradient-13)"/>
      <path id="Caminho_17" data-name="Caminho 17" d="M361.487,272.731c-5.168-1.142-5.889-1.622-5.889-3.305,0-1.5,1.022-2.283,4.086-2.283,3.3,0,7.15.961,11.537,2.524v-6.009a25.725,25.725,0,0,0-10.936-2.523c-6.429,0-10.7,3.425-10.7,8.412,0,5.408,2.344,7.27,10.936,9.133,5.528,1.2,7.09,1.5,7.09,3.605,0,1.863-1.382,2.885-5.287,2.885-4.447,0-7.271-1.082-12.739-3.906v6.67a24.994,24.994,0,0,0,12.739,3.245c7.03,0,11.3-3.3,11.3-9.013C373.624,276.216,370.38,274.714,361.487,272.731Z" transform="translate(-227.975 -249.116)" fill="url(#linear-gradient-2)"/>
      <path id="Caminho_18" data-name="Caminho 18" d="M361.487,272.731c-5.168-1.142-5.889-1.622-5.889-3.305,0-1.5,1.022-2.283,4.086-2.283,3.3,0,7.15.961,11.537,2.524v-6.009a25.725,25.725,0,0,0-10.936-2.523c-6.429,0-10.7,3.425-10.7,8.412,0,5.408,2.344,7.27,10.936,9.133,5.528,1.2,7.09,1.5,7.09,3.605,0,1.863-1.382,2.885-5.287,2.885-4.447,0-7.271-1.082-12.739-3.906v6.67a24.994,24.994,0,0,0,12.739,3.245c7.03,0,11.3-3.3,11.3-9.013C373.624,276.216,370.38,274.714,361.487,272.731Z" transform="translate(-227.975 -249.116)" fill="url(#linear-gradient-15)"/>
      <path id="Caminho_19" data-name="Caminho 19" d="M421.632,261.134c-9.133,0-14.361,6.189-14.361,15.022s5.228,15.022,14.361,15.022,14.361-6.189,14.361-15.022S430.765,261.134,421.632,261.134Zm0,24.035c-6.189,0-8.352-1.8-8.352-9.013s2.163-9.013,8.352-9.013,8.352,1.8,8.352,9.013S427.821,285.169,421.632,285.169Z" transform="translate(-256.816 -249.116)" fill="url(#linear-gradient-2)"/>
      <path id="Caminho_20" data-name="Caminho 20" d="M421.632,261.134c-9.133,0-14.361,6.189-14.361,15.022s5.228,15.022,14.361,15.022,14.361-6.189,14.361-15.022S430.765,261.134,421.632,261.134Zm0,24.035c-6.189,0-8.352-1.8-8.352-9.013s2.163-9.013,8.352-9.013,8.352,1.8,8.352,9.013S427.821,285.169,421.632,285.169Z" transform="translate(-256.816 -249.116)" fill="url(#linear-gradient-17)"/>
      <path id="Caminho_21" data-name="Caminho 21" d="M475.529,249.116h-4.807v6.009h4.807V279.16h6.009V255.125h8.533v-6.009h-8.533v-6.009h8.533V237.1H475.529Z" transform="translate(-288.542 -237.099)" fill="url(#linear-gradient-2)"/>
      <path id="Caminho_22" data-name="Caminho 22" d="M475.529,249.116h-4.807v6.009h4.807V279.16h6.009V255.125h8.533v-6.009h-8.533v-6.009h8.533V237.1H475.529Z" transform="translate(-288.542 -237.099)" fill="url(#linear-gradient-19)"/>
      <path id="Caminho_23" data-name="Caminho 23" d="M528.646,237.1h-6.009v12.017H517.83v6.009h4.807V279.16h13.94v-6.009h-7.932V255.125h7.932v-6.009h-7.932Z" transform="translate(-312.095 -237.099)" fill="url(#linear-gradient-2)"/>
      <path id="Caminho_24" data-name="Caminho 24" d="M528.646,237.1h-6.009v12.017H517.83v6.009h4.807V279.16h13.94v-6.009h-7.932V255.125h7.932v-6.009h-7.932Z" transform="translate(-312.095 -237.099)" fill="url(#linear-gradient-21)"/>
    </g>
  </g>
</svg>
