<svg xmlns="http://www.w3.org/2000/svg" width="73.156" height="51" viewBox="0 0 73.156 51">
  <g id="Grupo_74" data-name="Grupo 74" transform="translate(-625.348 -671.5)">
    <path id="Caminho_108" data-name="Caminho 108" d="M749.026,681.477h-16.9a1.385,1.385,0,0,1-1.385-1.385v-7.206a1.385,1.385,0,0,1,1.385-1.385h16.9a1.386,1.386,0,0,1,1.385,1.385v7.206A1.386,1.386,0,0,1,749.026,681.477Zm-15.514-2.771h14.129v-4.435H733.512Z" transform="translate(-78.65)" fill="#fff"/>
    <path id="Caminho_109" data-name="Caminho 109" d="M678.764,763.04h-16.9a1.386,1.386,0,0,1-1.385-1.385v-7.206a1.385,1.385,0,0,1,1.385-1.385h16.9a1.386,1.386,0,0,1,1.385,1.385v7.206A1.386,1.386,0,0,1,678.764,763.04Zm-15.514-2.771h14.129v-4.435H663.25Z" transform="translate(-27.019 -61.052)" fill="#fff"/>
    <path id="Caminho_110" data-name="Caminho 110" d="M819.287,763.04h-16.9A1.385,1.385,0,0,1,801,761.655v-7.206a1.385,1.385,0,0,1,1.385-1.385h16.9a1.385,1.385,0,0,1,1.385,1.385v7.206A1.386,1.386,0,0,1,819.287,763.04Zm-15.514-2.771H817.9v-4.435H803.773Z" transform="translate(-130.281 -61.052)" fill="#fff"/>
    <path id="Caminho_111" data-name="Caminho 111" d="M643.633,844.6h-16.9a1.386,1.386,0,0,1-1.385-1.385V836.01a1.386,1.386,0,0,1,1.385-1.385h16.9a1.386,1.386,0,0,1,1.386,1.385v7.207A1.386,1.386,0,0,1,643.633,844.6Zm-15.514-2.771h14.129V837.4H628.119Z" transform="translate(0 -122.103)" fill="#fff"/>
    <path id="Caminho_112" data-name="Caminho 112" d="M854.418,844.6h-16.9a1.386,1.386,0,0,1-1.385-1.385V836.01a1.386,1.386,0,0,1,1.385-1.385h16.9a1.386,1.386,0,0,1,1.385,1.385v7.207A1.385,1.385,0,0,1,854.418,844.6ZM838.9,841.832h14.129V837.4H838.9Z" transform="translate(-157.3 -122.103)" fill="#fff"/>
    <path id="Caminho_113" data-name="Caminho 113" d="M749.026,844.6h-16.9a1.386,1.386,0,0,1-1.385-1.385V836.01a1.386,1.386,0,0,1,1.385-1.385h16.9a1.386,1.386,0,0,1,1.385,1.385v7.207A1.386,1.386,0,0,1,749.026,844.6Zm-15.514-2.771h14.129V837.4H733.512Z" transform="translate(-78.65 -122.103)" fill="#fff"/>
    <path id="Caminho_114" data-name="Caminho 114" d="M737.1,735.085h-3.15v-4.429H700.222v4.429h-3.15v-5.814a1.489,1.489,0,0,1,1.575-1.385h36.882a1.489,1.489,0,0,1,1.575,1.385Z" transform="translate(-55.162 -42.285)" fill="#fff"/>
    <rect id="Retângulo_113" data-name="Retângulo 113" width="2.771" height="5.814" transform="translate(660.54 680.781)" fill="#fff"/>
    <path id="Caminho_115" data-name="Caminho 115" d="M718.2,816.647h-3.03v-4.428h-50.2v4.428h-3.03v-5.814a1.455,1.455,0,0,1,1.515-1.385h53.226a1.455,1.455,0,0,1,1.515,1.385Z" transform="translate(-28.143 -103.452)" fill="#fff"/>
    <rect id="Retângulo_114" data-name="Retângulo 114" width="2.771" height="5.814" transform="translate(677.955 701.125)" fill="#fff"/>
    <rect id="Retângulo_115" data-name="Retângulo 115" width="2.771" height="5.814" transform="translate(643.125 701.125)" fill="#fff"/>
    <rect id="Retângulo_116" data-name="Retângulo 116" width="2.771" height="5.814" transform="translate(660.54 707.405)" fill="#fff"/>
  </g>
</svg>
