<svg xmlns="http://www.w3.org/2000/svg" width="79.643" height="51" viewBox="0 0 79.643 51">
  <g id="Grupo_73" data-name="Grupo 73" transform="translate(-625.333 -1581.227)">
    <path id="Caminho_106" data-name="Caminho 106" d="M715.487,1621.794h-3.229v-33.919a3.427,3.427,0,0,0-3.427-3.419H654.747a3.427,3.427,0,0,0-3.427,3.419v33.919h-3.229v-33.919a6.659,6.659,0,0,1,6.656-6.648h54.084a6.66,6.66,0,0,1,6.656,6.648Z" transform="translate(-16.635)" fill="#fff"/>
    <path id="Caminho_107" data-name="Caminho 107" d="M694.138,1738.046H636.17a10.653,10.653,0,0,1-10.837-10.433,1.614,1.614,0,0,1,1.614-1.614h31.635a1.614,1.614,0,0,1,1.614,1.614v.335h9.915v-.335a1.614,1.614,0,0,1,1.614-1.614h31.635a1.614,1.614,0,0,1,1.615,1.614A10.653,10.653,0,0,1,694.138,1738.046Zm-65.384-8.819a7.544,7.544,0,0,0,7.416,5.59h57.968a7.544,7.544,0,0,0,7.416-5.59H673.291a2.446,2.446,0,0,1-2.392,1.949H659.41a2.446,2.446,0,0,1-2.392-1.949Z" transform="translate(0 -105.819)" fill="#fff"/>
    <rect id="Retângulo_105" data-name="Retângulo 105" width="3.229" height="8.25" transform="translate(654.36 1602.692)" fill="#fff"/>
    <rect id="Retângulo_106" data-name="Retângulo 106" width="3.229" height="14.484" transform="translate(660.48 1596.458)" fill="#fff"/>
    <rect id="Retângulo_107" data-name="Retângulo 107" width="3.229" height="10.516" transform="translate(666.6 1600.427)" fill="#fff"/>
    <rect id="Retângulo_108" data-name="Retângulo 108" width="3.229" height="8.328" transform="translate(672.72 1602.614)" fill="#fff"/>
    <rect id="Retângulo_109" data-name="Retângulo 109" width="3.229" height="9.805" transform="translate(642.12 1601.137)" fill="#fff"/>
    <rect id="Retângulo_110" data-name="Retângulo 110" width="3.229" height="12.249" transform="translate(648.24 1598.693)" fill="#fff"/>
    <rect id="Retângulo_111" data-name="Retângulo 111" width="3.229" height="12.278" transform="translate(678.841 1598.664)" fill="#fff"/>
    <rect id="Retângulo_112" data-name="Retângulo 112" width="3.229" height="15.775" transform="translate(684.961 1595.167)" fill="#fff"/>
  </g>
</svg>
