<svg xmlns="http://www.w3.org/2000/svg" width="356.938" height="93.905" viewBox="0 0 356.938 93.905">
  <g id="Grupo_44" data-name="Grupo 44" transform="translate(-1279.178 -444.333)">
    <g id="Grupo_36" data-name="Grupo 36" transform="translate(1383.73 529.262)">
      <rect id="Retângulo_68" data-name="Retângulo 68" width="8.386" height="8.976" transform="translate(115.079 0)" fill="#071e34"/>
      <rect id="Retângulo_69" data-name="Retângulo 69" width="32.066" height="8.976" transform="translate(64.354 0)" fill="#071e34"/>
      <rect id="Retângulo_70" data-name="Retângulo 70" width="119.548" height="8.976" transform="translate(131.794 0)" fill="#071e34"/>
      <rect id="Retângulo_71" data-name="Retângulo 71" width="57.186" height="8.976" transform="translate(0 0)" fill="#071e34"/>
    </g>
    <g id="Grupo_37" data-name="Grupo 37" transform="translate(1412.324 467.703)">
      <rect id="Retângulo_72" data-name="Retângulo 72" width="61.534" height="8.087" transform="translate(147.183)" fill="#071e34"/>
      <rect id="Retângulo_73" data-name="Retângulo 73" width="8.604" height="8.087" transform="translate(130.468)" fill="#071e34"/>
      <rect id="Retângulo_74" data-name="Retângulo 74" width="32.748" height="8.087" transform="translate(79.628)" fill="#071e34"/>
      <rect id="Retângulo_75" data-name="Retângulo 75" width="57.588" height="8.087" transform="translate(15.09)" fill="#071e34"/>
      <rect id="Retângulo_76" data-name="Retângulo 76" width="8.372" height="8.087" transform="translate(0)" fill="#071e34"/>
    </g>
    <g id="Grupo_38" data-name="Grupo 38" transform="translate(1279.178 444.333)">
      <rect id="Retângulo_77" data-name="Retângulo 77" width="31.587" height="8.087" transform="translate(79.906 0.445)" fill="#071e34"/>
      <rect id="Retângulo_78" data-name="Retângulo 78" width="57.356" height="8.087" transform="translate(15.136 0.445)" fill="#071e34"/>
      <rect id="Retângulo_79" data-name="Retângulo 79" width="8.372" height="8.087" transform="translate(130.004 0.89)" fill="#071e34"/>
      <rect id="Retângulo_80" data-name="Retângulo 80" width="8.372" height="8.087" transform="translate(0 0.89)" fill="#071e34"/>
      <rect id="Retângulo_81" data-name="Retângulo 81" width="210.173" height="8.976" transform="translate(146.765)" fill="#071e34"/>
    </g>
    <g id="Grupo_39" data-name="Grupo 39" transform="translate(1326.312 496.993)">
      <rect id="Retângulo_82" data-name="Retângulo 82" width="32.066" height="8.976" transform="translate(229.814)" fill="#071e34"/>
      <path id="Caminho_29" data-name="Caminho 29" d="M1369.414,554.125H1587.65v-8.977l-218.236.522Z" transform="translate(-1369.414 -545.148)" fill="#071e34"/>
    </g>
  </g>
</svg>
