<svg xmlns="http://www.w3.org/2000/svg" xmlns:xlink="http://www.w3.org/1999/xlink" width="145" height="23.669" viewBox="0 0 145 23.669">
  <defs>
    <clipPath id="clip-path">
      <path id="Caminho_6" data-name="Caminho 6" d="M0-.237H9.617V-9.611H0Z" fill="none"/>
    </clipPath>
    <linearGradient id="linear-gradient" x1="0.595" y1="0.966" x2="1" y2="0.966" gradientUnits="objectBoundingBox">
      <stop offset="0" stop-color="#02f6db"/>
      <stop offset="0.1" stop-color="#03f0db"/>
      <stop offset="0.2" stop-color="#03eadc"/>
      <stop offset="0.3" stop-color="#03e3dd"/>
      <stop offset="0.4" stop-color="#03ddde"/>
      <stop offset="0.5" stop-color="#03d6df"/>
      <stop offset="0.6" stop-color="#03d0e0"/>
      <stop offset="0.7" stop-color="#03cae1"/>
      <stop offset="0.8" stop-color="#03c3e2"/>
      <stop offset="0.9" stop-color="#03bde3"/>
      <stop offset="1" stop-color="#04b6e4"/>
    </linearGradient>
    <clipPath id="clip-path-2">
      <path id="Caminho_17" data-name="Caminho 17" d="M0,0H145V-23.668H0Z" fill="none"/>
    </clipPath>
  </defs>
  <g id="Grupo_27" data-name="Grupo 27" transform="translate(0 23.668)">
    <g id="Grupo_8" data-name="Grupo 8" clip-path="url(#clip-path)">
      <g id="Grupo_7" data-name="Grupo 7" transform="translate(4.867 -9.586) rotate(90)">
        <path id="Caminho_5" data-name="Caminho 5" d="M-14.082,4.867v-145H9.586v145Z" fill="url(#linear-gradient)"/>
      </g>
    </g>
    <g id="Grupo_9" data-name="Grupo 9" transform="translate(18.684 -16.906)">
      <path id="Caminho_7" data-name="Caminho 7" d="M0,0V16.906H3.381V3.381H9.873V0Z" fill="#fff"/>
    </g>
    <g id="Grupo_10" data-name="Grupo 10" transform="translate(18.684 -16.906)">
      <path id="Caminho_8" data-name="Caminho 8" d="M0,0V16.906H3.381V3.381H9.873V0Z" fill="#fff"/>
    </g>
    <path id="Caminho_9" data-name="Caminho 9" d="M31.938,0h3.381V-16.906H31.938Z" fill="#fff"/>
    <path id="Caminho_10" data-name="Caminho 10" d="M31.938,0h3.381V-16.906H31.938Z" fill="#fff"/>
    <path id="Caminho_11" data-name="Caminho 11" d="M31.938-20.287h3.381v-3.381H31.938Z" fill="#fff"/>
    <path id="Caminho_12" data-name="Caminho 12" d="M31.938-20.287h3.381v-3.381H31.938Z" fill="#fff"/>
    <g id="Grupo_11" data-name="Grupo 11" transform="translate(51.312 -16.906)">
      <path id="Caminho_13" data-name="Caminho 13" d="M0,0-4.261,13.322H-4.8L-9.061,0h-3.551L-7.2,16.906h5.343L3.55,0Z" fill="#fff"/>
    </g>
    <g id="Grupo_12" data-name="Grupo 12" transform="translate(51.312 -16.906)">
      <path id="Caminho_14" data-name="Caminho 14" d="M0,0-4.261,13.322H-4.8L-9.061,0h-3.551L-7.2,16.906h5.343L3.55,0Z" fill="#fff"/>
    </g>
    <g id="Grupo_15" data-name="Grupo 15" clip-path="url(#clip-path-2)">
      <g id="Grupo_13" data-name="Grupo 13" transform="translate(63.855 -16.906)">
        <path id="Caminho_15" data-name="Caminho 15" d="M0,0C-5.207,0-7.3,3.483-7.3,8.453c0,3.009.946,8.453,8.588,8.453a15.936,15.936,0,0,0,4.869-.677V12.916a15.858,15.858,0,0,1-4.869.609c-3.685,0-4.767-1.454-5.072-3.382H7.3V8.115C7.3,3.145,5.207,0,0,0M-3.888,6.762C-3.685,4.5-2.536,3.381,0,3.381c2.671,0,3.787.913,3.922,3.381Z" fill="#fff"/>
      </g>
      <g id="Grupo_14" data-name="Grupo 14" transform="translate(63.855 -16.906)">
        <path id="Caminho_16" data-name="Caminho 16" d="M0,0C-5.207,0-7.3,3.483-7.3,8.453c0,3.009.946,8.453,8.588,8.453a15.936,15.936,0,0,0,4.869-.677V12.916a15.858,15.858,0,0,1-4.869.609c-3.685,0-4.767-1.454-5.072-3.382H7.3V8.115C7.3,3.145,5.207,0,0,0M-3.888,6.762C-3.685,4.5-2.536,3.381,0,3.381c2.671,0,3.787.913,3.922,3.381Z" fill="#fff"/>
      </g>
    </g>
    <g id="Grupo_16" data-name="Grupo 16" transform="translate(74.539 -16.906)">
      <path id="Caminho_18" data-name="Caminho 18" d="M0,0V16.906H3.381V3.381H9.873V0Z" fill="#fff"/>
    </g>
    <g id="Grupo_17" data-name="Grupo 17" transform="translate(74.539 -16.906)">
      <path id="Caminho_19" data-name="Caminho 19" d="M0,0V16.906H3.381V3.381H9.873V0Z" fill="#fff"/>
    </g>
    <g id="Grupo_22" data-name="Grupo 22" clip-path="url(#clip-path-2)">
      <g id="Grupo_18" data-name="Grupo 18" transform="translate(93.811 -10.38)">
        <path id="Caminho_20" data-name="Caminho 20" d="M0,0C-2.908-.642-3.313-.913-3.313-1.86c0-.845.574-1.285,2.3-1.285A20.185,20.185,0,0,1,5.477-1.724V-5.105A14.462,14.462,0,0,0-.676-6.526C-4.294-6.526-6.7-4.6-6.7-1.792-6.7,1.251-5.376,2.3-.541,3.347c3.111.677,3.99.846,3.99,2.029C3.449,6.424,2.671,7,.473,7-2.029,7-3.618,6.39-6.7,4.8V8.554A14.064,14.064,0,0,0,.473,10.38c3.956,0,6.357-1.86,6.357-5.072C6.83,1.961,5,1.116,0,0" fill="#fff"/>
      </g>
      <g id="Grupo_19" data-name="Grupo 19" transform="translate(93.811 -10.38)">
        <path id="Caminho_21" data-name="Caminho 21" d="M0,0C-2.908-.642-3.313-.913-3.313-1.86c0-.845.574-1.285,2.3-1.285A20.185,20.185,0,0,1,5.477-1.724V-5.105A14.462,14.462,0,0,0-.676-6.526C-4.294-6.526-6.7-4.6-6.7-1.792-6.7,1.251-5.376,2.3-.541,3.347c3.111.677,3.99.846,3.99,2.029C3.449,6.424,2.671,7,.473,7-2.029,7-3.618,6.39-6.7,4.8V8.554A14.064,14.064,0,0,0,.473,10.38c3.956,0,6.357-1.86,6.357-5.072C6.83,1.961,5,1.116,0,0" fill="#fff"/>
      </g>
      <g id="Grupo_20" data-name="Grupo 20" transform="translate(111.426 -16.906)">
        <path id="Caminho_22" data-name="Caminho 22" d="M0,0C-5.139,0-8.081,3.483-8.081,8.453S-5.139,16.906,0,16.906s8.081-3.483,8.081-8.453S5.139,0,0,0M0,13.525c-3.483,0-4.7-1.015-4.7-5.072S-3.483,3.381,0,3.381,4.7,4.395,4.7,8.453,3.482,13.525,0,13.525" fill="#fff"/>
      </g>
      <g id="Grupo_21" data-name="Grupo 21" transform="translate(111.426 -16.906)">
        <path id="Caminho_23" data-name="Caminho 23" d="M0,0C-5.139,0-8.081,3.483-8.081,8.453S-5.139,16.906,0,16.906s8.081-3.483,8.081-8.453S5.139,0,0,0M0,13.525c-3.483,0-4.7-1.015-4.7-5.072S-3.483,3.381,0,3.381,4.7,4.395,4.7,8.453,3.482,13.525,0,13.525" fill="#fff"/>
      </g>
    </g>
    <g id="Grupo_23" data-name="Grupo 23" transform="translate(123.902 -23.668)">
      <path id="Caminho_25" data-name="Caminho 25" d="M0,0V6.763H-2.7v3.381H0V23.668H3.381V10.144h4.8V6.763h-4.8V3.381h4.8V0Z" fill="#fff"/>
    </g>
    <g id="Grupo_24" data-name="Grupo 24" transform="translate(123.902 -23.668)">
      <path id="Caminho_26" data-name="Caminho 26" d="M0,0V6.763H-2.7v3.381H0V23.668H3.381V10.144h4.8V6.763h-4.8V3.381h4.8V0Z" fill="#fff"/>
    </g>
    <g id="Grupo_25" data-name="Grupo 25" transform="translate(137.156 -23.668)">
      <path id="Caminho_27" data-name="Caminho 27" d="M0,0V6.763H-2.7v3.381H0V23.668H7.844V20.287H3.381V10.144H7.844V6.763H3.381V0Z" fill="#fff"/>
    </g>
    <g id="Grupo_26" data-name="Grupo 26" transform="translate(137.156 -23.668)">
      <path id="Caminho_28" data-name="Caminho 28" d="M0,0V6.763H-2.7v3.381H0V23.668H7.844V20.287H3.381V10.144H7.844V6.763H3.381V0Z" fill="#fff"/>
    </g>
  </g>
</svg>
