<svg xmlns="http://www.w3.org/2000/svg" xmlns:xlink="http://www.w3.org/1999/xlink" width="328.331" height="54.327" viewBox="0 0 328.331 54.327">
  <defs>
    <linearGradient id="linear-gradient" x1="0.5" y1="1" x2="0.5" gradientUnits="objectBoundingBox">
      <stop offset="0" stop-color="#56b6b5"/>
      <stop offset="1" stop-color="#00acde"/>
    </linearGradient>
    <linearGradient id="linear-gradient-2" y1="0.5" x2="1" y2="0.5" gradientUnits="objectBoundingBox">
      <stop offset="0" stop-color="#56b6b5"/>
      <stop offset="0.459" stop-color="#47b3c0"/>
      <stop offset="1" stop-color="#00acde"/>
    </linearGradient>
    <linearGradient id="linear-gradient-3" x1="-0.755" y1="0.5" x2="13.468" y2="0.5" xlink:href="#linear-gradient-2"/>
    <linearGradient id="linear-gradient-5" x1="-6.125" y1="0.5" x2="35.408" y2="0.5" xlink:href="#linear-gradient-2"/>
    <linearGradient id="linear-gradient-9" x1="-1.7" y1="0.5" x2="6.989" y2="0.5" xlink:href="#linear-gradient-2"/>
    <linearGradient id="linear-gradient-11" x1="-3.103" y1="0.5" x2="6.511" y2="0.5" xlink:href="#linear-gradient-2"/>
    <linearGradient id="linear-gradient-13" x1="-6.412" y1="0.5" x2="7.811" y2="0.5" xlink:href="#linear-gradient-2"/>
    <linearGradient id="linear-gradient-15" x1="-5.611" y1="0.5" x2="4.772" y2="0.5" xlink:href="#linear-gradient-2"/>
    <linearGradient id="linear-gradient-17" x1="-5.7" y1="0.5" x2="2.989" y2="0.5" xlink:href="#linear-gradient-2"/>
    <linearGradient id="linear-gradient-19" x1="-10.101" y1="0.5" x2="2.798" y2="0.5" xlink:href="#linear-gradient-2"/>
    <linearGradient id="linear-gradient-21" x1="-11.681" y1="0.5" x2="1.631" y2="0.5" xlink:href="#linear-gradient-2"/>
  </defs>
  <g id="Grupo_19" data-name="Grupo 19" transform="translate(-46.767 -237.099)">
    <rect id="Retângulo_16" data-name="Retângulo 16" width="22.069" height="22.069" transform="translate(46.767 269.356)" fill="url(#linear-gradient)"/>
    <g id="Grupo_18" data-name="Grupo 18" transform="translate(85.241 237.099)">
      <path id="Caminho_9" data-name="Caminho 9" d="M106.361,299.927h7.759V268.892h14.9v-7.759H106.361Z" transform="translate(-106.361 -245.616)" fill="url(#linear-gradient-2)"/>
      <path id="Caminho_10" data-name="Caminho 10" d="M106.361,299.927h7.759V268.892h14.9v-7.759H106.361Z" transform="translate(-106.361 -245.616)" fill="url(#linear-gradient-3)"/>
      <rect id="Retângulo_17" data-name="Retângulo 17" width="7.759" height="38.793" transform="translate(30.414 15.517)" fill="url(#linear-gradient-2)"/>
      <rect id="Retângulo_18" data-name="Retângulo 18" width="7.759" height="38.793" transform="translate(30.414 15.517)" fill="url(#linear-gradient-5)"/>
      <rect id="Retângulo_19" data-name="Retângulo 19" width="7.759" height="7.759" transform="translate(30.414)" fill="url(#linear-gradient-2)"/>
      <rect id="Retângulo_20" data-name="Retângulo 20" width="7.759" height="7.759" transform="translate(30.414)" fill="url(#linear-gradient-5)"/>
      <path id="Caminho_11" data-name="Caminho 11" d="M196.666,291.7h-1.241l-9.776-30.569H177.5l12.414,38.793h12.259l12.414-38.793h-8.147Z" transform="translate(-131.572 -245.616)" fill="url(#linear-gradient-2)"/>
      <path id="Caminho_12" data-name="Caminho 12" d="M196.666,291.7h-1.241l-9.776-30.569H177.5l12.414,38.793h12.259l12.414-38.793h-8.147Z" transform="translate(-131.572 -245.616)" fill="url(#linear-gradient-9)"/>
      <path id="Caminho_13" data-name="Caminho 13" d="M257.712,261.134c-11.948,0-16.759,7.991-16.759,19.4,0,6.905,2.172,19.4,19.707,19.4,2.948,0,5.12,0,11.172-1.552v-7.6a36.39,36.39,0,0,1-11.172,1.4c-8.457,0-10.94-3.336-11.638-7.759H274.47v-4.655C274.47,268.349,269.66,261.134,257.712,261.134Zm-8.923,15.517c.466-5.2,3.1-7.759,8.923-7.759,6.129,0,8.689,2.1,9,7.759Z" transform="translate(-154.059 -245.617)" fill="url(#linear-gradient-2)"/>
      <path id="Caminho_14" data-name="Caminho 14" d="M257.712,261.134c-11.948,0-16.759,7.991-16.759,19.4,0,6.905,2.172,19.4,19.707,19.4,2.948,0,5.12,0,11.172-1.552v-7.6a36.39,36.39,0,0,1-11.172,1.4c-8.457,0-10.94-3.336-11.638-7.759H274.47v-4.655C274.47,268.349,269.66,261.134,257.712,261.134Zm-8.923,15.517c.466-5.2,3.1-7.759,8.923-7.759,6.129,0,8.689,2.1,9,7.759Z" transform="translate(-154.059 -245.617)" fill="url(#linear-gradient-11)"/>
      <path id="Caminho_15" data-name="Caminho 15" d="M304.885,299.927h7.759V268.892h14.9v-7.759H304.885Z" transform="translate(-176.715 -245.616)" fill="url(#linear-gradient-2)"/>
      <path id="Caminho_16" data-name="Caminho 16" d="M304.885,299.927h7.759V268.892h14.9v-7.759H304.885Z" transform="translate(-176.715 -245.616)" fill="url(#linear-gradient-13)"/>
      <path id="Caminho_17" data-name="Caminho 17" d="M364.951,276.108c-6.673-1.475-7.6-2.1-7.6-4.268,0-1.94,1.319-2.948,5.275-2.948,4.268,0,9.233,1.241,14.9,3.259v-7.759a33.217,33.217,0,0,0-14.121-3.258c-8.3,0-13.81,4.422-13.81,10.862,0,6.983,3.026,9.388,14.121,11.793,7.138,1.552,9.155,1.94,9.155,4.655,0,2.406-1.784,3.725-6.827,3.725-5.741,0-9.388-1.4-16.448-5.044v8.612a32.273,32.273,0,0,0,16.448,4.189c9.078,0,14.586-4.267,14.586-11.638C380.624,280.608,376.434,278.668,364.951,276.108Z" transform="translate(-192.558 -245.617)" fill="url(#linear-gradient-2)"/>
      <path id="Caminho_18" data-name="Caminho 18" d="M364.951,276.108c-6.673-1.475-7.6-2.1-7.6-4.268,0-1.94,1.319-2.948,5.275-2.948,4.268,0,9.233,1.241,14.9,3.259v-7.759a33.217,33.217,0,0,0-14.121-3.258c-8.3,0-13.81,4.422-13.81,10.862,0,6.983,3.026,9.388,14.121,11.793,7.138,1.552,9.155,1.94,9.155,4.655,0,2.406-1.784,3.725-6.827,3.725-5.741,0-9.388-1.4-16.448-5.044v8.612a32.273,32.273,0,0,0,16.448,4.189c9.078,0,14.586-4.267,14.586-11.638C380.624,280.608,376.434,278.668,364.951,276.108Z" transform="translate(-192.558 -245.617)" fill="url(#linear-gradient-15)"/>
      <path id="Caminho_19" data-name="Caminho 19" d="M425.814,261.134c-11.793,0-18.543,7.991-18.543,19.4s6.75,19.4,18.543,19.4,18.543-7.991,18.543-19.4S437.607,261.134,425.814,261.134Zm0,31.035c-7.991,0-10.784-2.327-10.784-11.638s2.793-11.638,10.784-11.638S436.6,271.22,436.6,280.53,433.806,292.169,425.814,292.169Z" transform="translate(-212.999 -245.617)" fill="url(#linear-gradient-2)"/>
      <path id="Caminho_20" data-name="Caminho 20" d="M425.814,261.134c-11.793,0-18.543,7.991-18.543,19.4s6.75,19.4,18.543,19.4,18.543-7.991,18.543-19.4S437.607,261.134,425.814,261.134Zm0,31.035c-7.991,0-10.784-2.327-10.784-11.638s2.793-11.638,10.784-11.638S436.6,271.22,436.6,280.53,433.806,292.169,425.814,292.169Z" transform="translate(-212.999 -245.617)" fill="url(#linear-gradient-17)"/>
      <path id="Caminho_21" data-name="Caminho 21" d="M476.929,252.616h-6.207v7.759h6.207v31.035h7.759V260.374h11.018v-7.759H484.688v-7.759h11.018V237.1H476.929Z" transform="translate(-235.486 -237.099)" fill="url(#linear-gradient-2)"/>
      <path id="Caminho_22" data-name="Caminho 22" d="M476.929,252.616h-6.207v7.759h6.207v31.035h7.759V260.374h11.018v-7.759H484.688v-7.759h11.018V237.1H476.929Z" transform="translate(-235.486 -237.099)" fill="url(#linear-gradient-19)"/>
      <path id="Caminho_23" data-name="Caminho 23" d="M531.8,237.1h-7.758v15.517H517.83v7.759h6.207v31.035h18v-7.759H531.8V260.374h10.241v-7.759H531.8Z" transform="translate(-252.18 -237.099)" fill="url(#linear-gradient-2)"/>
      <path id="Caminho_24" data-name="Caminho 24" d="M531.8,237.1h-7.758v15.517H517.83v7.759h6.207v31.035h18v-7.759H531.8V260.374h10.241v-7.759H531.8Z" transform="translate(-252.18 -237.099)" fill="url(#linear-gradient-21)"/>
    </g>
  </g>
</svg>
