<svg xmlns="http://www.w3.org/2000/svg" width="356.938" height="93.905" viewBox="0 0 356.938 93.905">
  <g id="Grupo_59" data-name="Grupo 59" transform="translate(0)">
    <g id="Grupo_36" data-name="Grupo 36" transform="translate(1.045 84.928)">
      <rect id="Retângulo_68" data-name="Retângulo 68" width="8.386" height="8.976" transform="translate(127.876 0)" fill="#071e34"/>
      <rect id="Retângulo_69" data-name="Retângulo 69" width="32.066" height="8.976" transform="translate(154.921 0)" fill="#071e34"/>
      <rect id="Retângulo_70" data-name="Retângulo 70" width="119.547" height="8.976" transform="translate(0 0)" fill="#071e34"/>
      <rect id="Retângulo_71" data-name="Retângulo 71" width="57.186" height="8.976" transform="translate(194.155 0)" fill="#071e34"/>
    </g>
    <g id="Grupo_37" data-name="Grupo 37" transform="translate(15.075 23.37)">
      <rect id="Retângulo_72" data-name="Retângulo 72" width="61.534" height="8.087" transform="translate(0)" fill="#071e34"/>
      <rect id="Retângulo_73" data-name="Retângulo 73" width="8.604" height="8.087" transform="translate(69.645)" fill="#071e34"/>
      <rect id="Retângulo_74" data-name="Retângulo 74" width="32.748" height="8.087" transform="translate(96.342)" fill="#071e34"/>
      <rect id="Retângulo_75" data-name="Retângulo 75" width="57.588" height="8.087" transform="translate(136.04)" fill="#071e34"/>
      <rect id="Retângulo_76" data-name="Retângulo 76" width="8.372" height="8.087" transform="translate(200.345)" fill="#071e34"/>
    </g>
    <g id="Grupo_38" data-name="Grupo 38" transform="translate(0 0)">
      <rect id="Retângulo_77" data-name="Retângulo 77" width="31.587" height="8.087" transform="translate(245.445 0.445)" fill="#071e34"/>
      <rect id="Retângulo_78" data-name="Retângulo 78" width="57.355" height="8.087" transform="translate(284.446 0.445)" fill="#071e34"/>
      <rect id="Retângulo_79" data-name="Retângulo 79" width="8.372" height="8.087" transform="translate(218.562 0.89)" fill="#071e34"/>
      <rect id="Retângulo_80" data-name="Retângulo 80" width="8.372" height="8.087" transform="translate(348.566 0.89)" fill="#071e34"/>
      <rect id="Retângulo_81" data-name="Retângulo 81" width="210.173" height="8.976" transform="translate(0)" fill="#071e34"/>
    </g>
    <g id="Grupo_39" data-name="Grupo 39" transform="translate(47.924 52.659)">
      <rect id="Retângulo_82" data-name="Retângulo 82" width="32.066" height="8.976" transform="translate(0)" fill="#071e34"/>
      <path id="Caminho_29" data-name="Caminho 29" d="M1587.65,554.125H1369.414v-8.977l218.235.522Z" transform="translate(-1325.77 -545.148)" fill="#071e34"/>
    </g>
  </g>
</svg>
