<svg xmlns="http://www.w3.org/2000/svg" width="81.824" height="51" viewBox="0 0 81.824 51">
  <g id="Grupo_76" data-name="Grupo 76" transform="translate(-250 -284.177)">
    <path id="Caminho_122" data-name="Caminho 122" d="M325.816,286.675a3.139,3.139,0,0,1,.662.243,2.179,2.179,0,0,1,.708.556,2.1,2.1,0,0,1,.41.833,1.186,1.186,0,0,0,2.3-.582h0a4.508,4.508,0,0,0-.745-1.589,4.391,4.391,0,0,0-.891-.894,5.111,5.111,0,0,0-1.666-.814,6.774,6.774,0,0,0-1.871-.251H255.337A5.336,5.336,0,0,0,250,289.514V329.84a5.336,5.336,0,0,0,5.337,5.337h69.384a5.336,5.336,0,0,0,5.337-5.337v-22.2a1.186,1.186,0,0,0-2.372,0v22.2a2.95,2.95,0,0,1-.233,1.154,2.981,2.981,0,0,1-1.076,1.306,2.943,2.943,0,0,1-1.657.506H255.337a2.964,2.964,0,0,1-2.965-2.965V289.514a2.964,2.964,0,0,1,2.965-2.965h69.384a4.534,4.534,0,0,1,1.095.126Z" fill="#fff"/>
    <path id="Caminho_123" data-name="Caminho 123" d="M352.032,330.211a2.235,2.235,0,0,1,.962.844,2.508,2.508,0,0,1,.387,1.352,1.186,1.186,0,1,0,2.372,0v-.316a1.18,1.18,0,0,0-.039-.3,4.816,4.816,0,0,0-1.268-2.718A4.549,4.549,0,0,0,353,328.046a4.369,4.369,0,0,0-1.792-.383H298.031a4.372,4.372,0,0,0-1.792.383,4.607,4.607,0,0,0-1.993,1.734,4.875,4.875,0,0,0-.76,2.627v27.279a4.843,4.843,0,0,0,1.307,3.33,4.547,4.547,0,0,0,1.445,1.03,4.371,4.371,0,0,0,1.792.383h53.179a4.371,4.371,0,0,0,1.792-.383,4.6,4.6,0,0,0,1.992-1.734,4.878,4.878,0,0,0,.759-2.627V349.468a1.186,1.186,0,0,0-2.372,0h0v10.218a2.469,2.469,0,0,1-.66,1.7,2.17,2.17,0,0,1-.69.494,2,2,0,0,1-.822.176H298.031a2,2,0,0,1-.823-.176,2.238,2.238,0,0,1-.963-.844,2.506,2.506,0,0,1-.387-1.352V332.407a2.469,2.469,0,0,1,.66-1.7,2.173,2.173,0,0,1,.69-.494,2,2,0,0,1,.823-.176h53.179a1.994,1.994,0,0,1,.822.176Z" transform="translate(-36.37 -36.37)" fill="#fff"/>
    <path id="Caminho_124" data-name="Caminho 124" d="M548.552,351.763l-1.7.591.715-2.191,13.751-14.248a2.722,2.722,0,0,0,.23.259l1.318,1.289a2.746,2.746,0,0,0,.221.193l-14.532,14.107Zm24.412-27.784a1.277,1.277,0,0,1,.919-.387,1.292,1.292,0,0,1,.478.091,1.282,1.282,0,0,1,.5,2.017l-9.829,10.061a.357.357,0,0,1-.121.082.368.368,0,0,1-.275,0,.362.362,0,0,1-.119-.078l-1.318-1.289a.361.361,0,0,1-.109-.26.366.366,0,0,1,.026-.135.354.354,0,0,1,.078-.119l9.766-9.986Zm3.476-1.716a3.656,3.656,0,0,0-5.172.057l-9.766,9.985h0l-.006.006h0l-15.829,16.4a1.18,1.18,0,0,0-.274.456l-1.541,4.723a1.186,1.186,0,0,0,1.516,1.488l4.209-1.461a1.186,1.186,0,0,0,.437-.27l16.627-16.141h0c.034-.032.063-.061.081-.079l.006-.006,0,0h0l7.615-7.794c-.016.063-.03.126-.047.189a8.058,8.058,0,0,1-1.374,2.762A16.286,16.286,0,0,1,569.3,336.1a1.186,1.186,0,0,0,1.356,1.947h0a18.635,18.635,0,0,0,4.159-4.036,10.443,10.443,0,0,0,1.769-3.566,11.41,11.41,0,0,0,.384-3.03c0-.2,0-.386-.01-.563a3.651,3.651,0,0,0-.521-4.584Z" transform="translate(-245.716 -30.981)" fill="#fff"/>
    <path id="Caminho_125" data-name="Caminho 125" d="M387.544,524.461h0Z" transform="translate(-115.035 -200.962)" fill="#fff"/>
    <path id="Caminho_126" data-name="Caminho 126" d="M394.421,442.562c.553-.412,1.206-.831,1.846-1.259.308-.207.613-.416.907-.633a7.215,7.215,0,0,0,.891.643l0,0a2.266,2.266,0,0,1,.131.228c.034.068.068.141.1.215a35.813,35.813,0,0,1-4.628,1.981,2.639,2.639,0,0,1-.23-.327l.054-.058a7.618,7.618,0,0,1,.929-.793Zm4.519-1.142Zm-5.52-4.272h0v0Zm-.988-.189h0ZM391,442.877a1.572,1.572,0,0,0-.046.382,2.016,2.016,0,0,0,.088.57,3.014,3.014,0,0,0,.149.4,4.411,4.411,0,0,0,.348.619,4.938,4.938,0,0,0,.318.426,3.593,3.593,0,0,0,.584.567,2.156,2.156,0,0,0,.408.245,1.677,1.677,0,0,0,.281.1,1.5,1.5,0,0,0,.367.046,1.408,1.408,0,0,0,.439-.07h0a38.16,38.16,0,0,0,6.131-2.65h0a1.363,1.363,0,0,0,.41-.341,1.4,1.4,0,0,0,.181-.292,1.515,1.515,0,0,0,.119-.384,1.82,1.82,0,0,0,.026-.309,2.467,2.467,0,0,0-.042-.439,4.12,4.12,0,0,0-.186-.663,5.5,5.5,0,0,0-.423-.9,3.394,3.394,0,0,0-.278-.4,2.174,2.174,0,0,0-.188-.206,1.6,1.6,0,0,0-.3-.226q-.177-.1-.343-.22c.253-.2.508-.392.77-.578a1.186,1.186,0,0,0-1.38-1.93q-.508.363-.995.751l-.165-.208c-.318-.4-.655-.833-.912-1.193-.128-.179-.236-.341-.305-.457-.035-.058-.059-.1-.071-.129l-.006-.014v0h0A1.184,1.184,0,0,0,393.9,435l-1.118,1.489a1.167,1.167,0,0,0-.245-.077,1.188,1.188,0,0,0-1.014.275,2.954,2.954,0,0,1-1.975.746,3.168,3.168,0,0,1-.348-.019,1.181,1.181,0,0,0-.761.176,8.163,8.163,0,0,0-1.286,1.044c-.6.576-1.15,1.206-1.676,1.758-.262.276-.517.531-.757.748a4.963,4.963,0,0,1-.658.515l-2.4,1.516c-.4.254-.762.527-1.1.751-.166.112-.324.211-.468.29a2.431,2.431,0,0,1-.373.171.165.165,0,0,1-.012-.024h0a.146.146,0,0,1-.012-.061.409.409,0,0,1,.014-.1,1.4,1.4,0,0,1,.117-.289c.062-.121.146-.26.243-.409.393-.607.819-1.2,1.27-1.772a1.186,1.186,0,0,0-1.317-1.855q-.189.065-.374.121c-.247.076-.486.151-.7.2a2.338,2.338,0,0,1-.531.079.572.572,0,0,1-.177-.022.142.142,0,0,1-.058-.034.554.554,0,0,1-.1-.118,1.013,1.013,0,0,1-.117-.307,2.293,2.293,0,0,1-.048-.5,5.061,5.061,0,0,1,.128-1.05,9.2,9.2,0,0,1,.287-1.013,7.723,7.723,0,0,1,2.247-3.359,7.259,7.259,0,0,1,2.276-1.314,7.651,7.651,0,0,1,2.57-.441,7.857,7.857,0,0,1,2.548.425h0q.351.121.693.275a1.186,1.186,0,1,0,.981-2.16h0q-.445-.2-.9-.359h0a10.224,10.224,0,0,0-3.319-.554,10.021,10.021,0,0,0-3.368.579,9.628,9.628,0,0,0-3.017,1.743,10.087,10.087,0,0,0-2.952,4.394,11.585,11.585,0,0,0-.362,1.279,7.39,7.39,0,0,0-.182,1.554,4.35,4.35,0,0,0,.2,1.363,3.24,3.24,0,0,0,.315.682,2.931,2.931,0,0,0,.507.618,2.524,2.524,0,0,0,.92.543,2.658,2.658,0,0,0,.351.088,4.946,4.946,0,0,0-.242.475,3.473,3.473,0,0,0-.193.56,2.759,2.759,0,0,0-.083.664,2.523,2.523,0,0,0,.187.956,2.45,2.45,0,0,0,.856,1.086,2.314,2.314,0,0,0,1.332.421,2.413,2.413,0,0,0,.77-.128h0a4.734,4.734,0,0,0,.764-.342,10.366,10.366,0,0,0,.942-.6c.281-.2.534-.379.746-.512l2.4-1.516a8.157,8.157,0,0,0,1.286-1.044c.6-.576,1.15-1.206,1.676-1.758.262-.276.517-.531.757-.748.128-.116.251-.219.369-.309.045,0,.09,0,.134,0a5.352,5.352,0,0,0,1.9-.345,5.291,5.291,0,0,0,.831-.4,1.724,1.724,0,0,0,.534.086,1.881,1.881,0,0,0,.853-.208,1.917,1.917,0,0,0,.662-.553h0l.441-.588c.283.374.581.75.842,1.08-.078.056-.157.112-.24.17-.325.225-.684.461-1.054.706-.555.369-1.136.758-1.677,1.189a9.146,9.146,0,0,0-.775.687,5.434,5.434,0,0,0-.667.8h0a1.428,1.428,0,0,0-.2.45Z" transform="translate(-105.002 -121.753)" fill="#fff"/>
  </g>
</svg>
