<svg xmlns="http://www.w3.org/2000/svg" width="63.987" height="53" viewBox="0 0 63.987 53">
  <g id="Grupo_75" data-name="Grupo 75" transform="translate(-1532 -1553.392)">
    <path id="Caminho_116" data-name="Caminho 116" d="M1608.317,1667.547H1584.93V1665.1h23.386c3.289,0,4.2-.62,6.135-2.535l16.86-18.231a2.185,2.185,0,0,0,.037-3.079,2.254,2.254,0,0,0-3.137.037l-14.717,13.372-1.642-1.807,14.718-13.372a4.72,4.72,0,0,1,6.5.037,4.641,4.641,0,0,1,.037,6.472l-16.878,18.251-.037.038C1613.761,1666.692,1612.206,1667.547,1608.317,1667.547Z" transform="translate(-38.413 -64.456)" fill="#fff"/>
    <path id="Caminho_117" data-name="Caminho 117" d="M1609.353,1695.56h-7.822v-2.442h7.822a2.071,2.071,0,1,0,0-4.141h-7.822a1.221,1.221,0,0,1-.612-.164,10.1,10.1,0,0,0-12.194,1.61,1.221,1.221,0,0,1-.864.359h-2.93v-2.442h2.439a12.544,12.544,0,0,1,14.481-1.8h7.5a4.513,4.513,0,1,1,0,9.025Z" transform="translate(-40.87 -102.73)" fill="#fff"/>
    <path id="Caminho_118" data-name="Caminho 118" d="M1542.77,1708.209h-9.549a1.221,1.221,0,0,1-1.221-1.221v-20.651a1.221,1.221,0,0,1,1.221-1.221h9.549a1.221,1.221,0,0,1,1.221,1.221v20.651A1.221,1.221,0,0,1,1542.77,1708.209Zm-8.328-2.442h7.107v-18.21h-7.107Z" transform="translate(0 -101.817)" fill="#fff"/>
    <path id="Caminho_119" data-name="Caminho 119" d="M1637.994,1626.866h-2.442v-15.2a1.221,1.221,0,0,1,1.221-1.221h8.4v2.442h-7.183Z" transform="translate(-80.921 -44.366)" fill="#fff"/>
    <path id="Caminho_120" data-name="Caminho 120" d="M1687.7,1585.67h-2.442v-29.837H1679.3v27.079h-2.442v-28.3a1.221,1.221,0,0,1,1.221-1.221h8.4a1.221,1.221,0,0,1,1.221,1.221Z" transform="translate(-113.145)" fill="#fff"/>
    <path id="Caminho_121" data-name="Caminho 121" d="M1733.786,1601.987h-2.442v-16.081h-7.184v-2.442h8.4a1.221,1.221,0,0,1,1.221,1.221Z" transform="translate(-150.165 -23.953)" fill="#fff"/>
  </g>
</svg>
